<?xml version="1.0" encoding="UTF-8"?>
<svg version="1.1" xmlns="http://www.w3.org/2000/svg" width="665" height="218">
<path d="M0 0 C219.45 0 438.9 0 665 0 C665 71.94 665 143.88 665 218 C445.55 218 226.1 218 0 218 C0 146.06 0 74.12 0 0 Z " fill="#150B73" transform="translate(0,0)"/>
<path d="M0 0 C168.63 0 337.26 0 511 0 C511 6.6 511 13.2 511 20 C517.27 20 523.54 20 530 20 C530 56.96 530 93.92 530 132 C361.7 132 193.4 132 20 132 C20 125.4 20 118.8 20 112 C13.4 112 6.8 112 0 112 C0 75.04 0 38.08 0 0 Z " fill="#EFEACB" transform="translate(75,37)"/>
<path d="M0 0 C168.63 0 337.26 0 511 0 C511 6.6 511 13.2 511 20 C517.27 20 523.54 20 530 20 C530 56.96 530 93.92 530 132 C361.7 132 193.4 132 20 132 C20 125.4 20 118.8 20 112 C13.4 112 6.8 112 0 112 C0 75.04 0 38.08 0 0 Z M20 20 C20 50.36 20 80.72 20 112 C181.7 112 343.4 112 510 112 C510 81.64 510 51.28 510 20 C348.3 20 186.6 20 20 20 Z " fill="#837C9F" transform="translate(75,37)"/>
<path d="M0 0 C4.2559141 2.22972891 6.73948613 5.04336782 8.796875 9.31640625 C9.291875 14.26640625 9.291875 14.26640625 9.796875 19.31640625 C-1.093125 19.31640625 -11.983125 19.31640625 -23.203125 19.31640625 C-20.16638553 27.59994384 -20.16638553 27.59994384 -17.140625 30.37890625 C-11.79189661 32.08594723 -6.07945665 32.42982495 -0.78125 30.37890625 C1.09640915 29.39210728 2.94901021 28.35793004 4.796875 27.31640625 C5.456875 27.64640625 6.116875 27.97640625 6.796875 28.31640625 C5.33850685 32.161195 3.43229201 33.49869775 -0.203125 35.31640625 C-5.89333286 37.04976789 -11.8965381 37.09977539 -17.515625 35.19140625 C-22.16741205 31.94597343 -25.78166407 27.87302624 -27.203125 22.31640625 C-28.01739176 15.80227217 -27.03960006 10.70155014 -23.203125 5.31640625 C-17.04044572 -1.16808396 -8.54305656 -2.6507711 0 0 Z " fill="#221878" transform="translate(448.203125,92.68359375)"/>
<path d="M0 0 C4.01684726 2.93915653 6.95784056 6.06102168 8.5625 10.875 C8.5625 13.515 8.5625 16.155 8.5625 18.875 C-1.9975 18.875 -12.5575 18.875 -23.4375 18.875 C-21.5874256 26.00855211 -21.5874256 26.00855211 -16.4375 29.875 C-12.75565226 31.71592387 -8.46486999 31.24675723 -4.4375 30.875 C-1.13648869 29.47575055 -1.13648869 29.47575055 1.5625 27.875 C2.8825 27.875 4.2025 27.875 5.5625 27.875 C3.82657325 31.98595091 1.95070312 33.29332761 -2.02734375 35.10546875 C-7.27953573 36.7824247 -12.58577946 36.95094131 -17.77734375 34.9921875 C-22.397742 32.39375124 -25.9575289 29.08707213 -27.4375 23.875 C-28.39022376 16.77040281 -28.44025605 10.33990586 -23.96875 4.46484375 C-17.38332068 -2.37257904 -8.80090017 -2.8802946 0 0 Z " fill="#211678" transform="translate(492.4375,93.125)"/>
<path d="M0 0 C3.47763689 3.13835524 5.289164 5.10556489 5.87890625 9.8671875 C6.07327715 14.49446887 5.90805549 17.59579232 3.875 21.8125 C0.81593645 25.11959573 -1.21161655 27.0480386 -5.8046875 27.59375 C-10.79866366 27.77157704 -14.49164403 27.67808303 -18.4375 24.3125 C-21.79197578 20.58530469 -23.30551731 18.06127068 -23.6875 13 C-23.34272549 7.91457597 -21.74653095 4.82606704 -18.4375 1 C-13.3484682 -3.29387058 -5.67426722 -2.78554936 0 0 Z " fill="#EEE9CB" transform="translate(256.4375,97.6875)"/>
<path d="M0 0 C1.32 0 2.64 0 4 0 C4.33 1.32 4.66 2.64 5 4 C5.598125 3.34 6.19625 2.68 6.8125 2 C11.45779153 -0.91469272 15.6491506 -0.79359147 21 0 C24.58667747 1.85738655 27.30513544 4.00570605 30 7 C30.3403125 6.1028125 30.3403125 6.1028125 30.6875 5.1875 C32.50121296 2.16464507 33.70094614 1.34655259 37 0 C42.33807037 -0.6753961 46.6107944 -0.66979556 51.5 1.6875 C55.89270367 5.75075089 57.85978859 9.71814835 58.11352539 15.65722656 C58.10828857 16.64174805 58.10305176 17.62626953 58.09765625 18.640625 C58.09443359 19.71054688 58.09121094 20.78046875 58.08789062 21.8828125 C58.07532227 23.54957031 58.07532227 23.54957031 58.0625 25.25 C58.05798828 26.37664062 58.05347656 27.50328125 58.04882812 28.6640625 C58.03705397 31.44276217 58.0206084 34.22135409 58 37 C56.35 37 54.7 37 53 37 C52.97494385 36.20303711 52.9498877 35.40607422 52.92407227 34.58496094 C52.80801211 30.97314778 52.68533069 27.36158898 52.5625 23.75 C52.52318359 22.49574219 52.48386719 21.24148437 52.44335938 19.94921875 C52.40146484 18.74394531 52.35957031 17.53867188 52.31640625 16.296875 C52.26141968 14.63156738 52.26141968 14.63156738 52.20532227 12.93261719 C51.96335021 9.38415051 51.96335021 9.38415051 51 6 C46.98224398 4.13127627 43.39811046 3.53211591 39 4 C35.20396639 5.72546982 33.50366606 7.1433827 32 11 C31.63495312 13.90099927 31.63495312 13.90099927 31.5859375 17.078125 C31.54726562 18.23828125 31.50859375 19.3984375 31.46875 20.59375 C31.4378125 21.8003125 31.406875 23.006875 31.375 24.25 C31.33632812 25.47203125 31.29765625 26.6940625 31.2578125 27.953125 C31.16357892 30.9685994 31.07796545 33.98406828 31 37 C29.68 37 28.36 37 27 37 C26.9906543 36.27409668 26.98130859 35.54819336 26.97167969 34.80029297 C26.91778719 31.49118786 26.83417561 28.18346762 26.75 24.875 C26.73582031 23.73289062 26.72164062 22.59078125 26.70703125 21.4140625 C26.52269035 15.07273552 26.38691662 10.76623648 22 6 C18.53984865 4.26992432 14.78327445 4.5164727 11 5 C7.50109996 7.11391877 6.29421314 8.11736059 5 12 C4.85060226 13.91765594 4.75189717 15.83946522 4.68359375 17.76171875 C4.64169922 18.87998047 4.59980469 19.99824219 4.55664062 21.15039062 C4.51732422 22.31763672 4.47800781 23.48488281 4.4375 24.6875 C4.37272461 26.45577148 4.37272461 26.45577148 4.30664062 28.25976562 C4.20048824 31.17305883 4.09843758 34.08643757 4 37 C2.68 37 1.36 37 0 37 C0 24.79 0 12.58 0 0 Z " fill="#281E7A" transform="translate(164,92)"/>
<path d="M0 0 C0.72896484 -0.00708984 1.45792969 -0.01417969 2.20898438 -0.02148438 C8.16123859 0.04816396 12.34598253 1.51110233 16.8125 5.625 C17.34875 6.223125 17.885 6.82125 18.4375 7.4375 C18.1075 8.4275 17.7775 9.4175 17.4375 10.4375 C14.4375 10.4375 14.4375 10.4375 12.4375 8.5 C11.7775 7.819375 11.1175 7.13875 10.4375 6.4375 C7.00758462 5.29419487 4.2388584 5.23368349 0.625 5.1875 C-0.57769531 5.16171875 -1.78039062 5.1359375 -3.01953125 5.109375 C-6.88769675 5.46761745 -9.27106566 6.41048812 -12.5625 8.4375 C-13.76522819 10.84295638 -13.66321472 12.38746953 -13.625 15.0625 C-13.61597656 15.87976563 -13.60695313 16.69703125 -13.59765625 17.5390625 C-13.58605469 18.16554688 -13.57445312 18.79203125 -13.5625 19.4375 C-7.89698278 21.27814039 -2.29433769 22.70803169 3.5625 23.8125 C10.67072551 25.28370136 16.31845742 27.25893613 20.4375 33.4375 C21.17788686 37.95730351 20.8264188 41.57863766 18.9375 45.75 C13.86262781 51.2054876 9.39496805 52.6192014 2.20654297 52.96044922 C-5.18711453 53.08932511 -10.95923081 52.76891247 -16.5625 47.4375 C-17.3875 46.674375 -18.2125 45.91125 -19.0625 45.125 C-19.5575 44.568125 -20.0525 44.01125 -20.5625 43.4375 C-20.2325 42.4475 -19.9025 41.4575 -19.5625 40.4375 C-15.2252107 40.93795646 -12.78267653 43.69692423 -9.5625 46.4375 C-6.13258462 47.58080513 -3.3638584 47.64131651 0.25 47.6875 C2.05404297 47.72617188 2.05404297 47.72617188 3.89453125 47.765625 C7.76111736 47.40752882 10.13206021 46.43249916 13.4375 44.4375 C15.61136515 41.79105547 15.43603294 40.35387753 15.375 36.875 C14.79032095 33.39621325 14.79032095 33.39621325 12.4375 31.84765625 C8.54569231 30.01830394 4.70542409 29.24768782 0.5 28.4375 C-6.47233694 27.08764642 -12.13897915 25.75565038 -17.4375 20.6875 C-19.98618077 16.78951764 -20.29735393 15.00992444 -19.5625 10.4375 C-15.41003913 1.96647983 -8.7882777 -0.24216587 0 0 Z " fill="#241A79" transform="translate(353.5625,76.5625)"/>
<path d="M0 0 C0.72058594 -0.01546875 1.44117188 -0.0309375 2.18359375 -0.046875 C8.48079275 -0.00132564 12.71429077 1.98387554 17.4375 6.25 C17.788125 6.6625 18.13875 7.075 18.5 7.5 C18.17 8.49 17.84 9.48 17.5 10.5 C14.5 10.5 14.5 10.5 12.5 8.5625 C11.84 7.881875 11.18 7.20125 10.5 6.5 C7.07008462 5.35669487 4.3013584 5.29618349 0.6875 5.25 C-0.51519531 5.22421875 -1.71789062 5.1984375 -2.95703125 5.171875 C-6.96467838 5.54303526 -10.56979797 6.56979797 -13.5 9.5 C-13.57205511 11.18608966 -13.58386068 12.87500659 -13.5625 14.5625 C-13.54896484 15.94115234 -13.54896484 15.94115234 -13.53515625 17.34765625 C-13.52355469 18.05792969 -13.51195313 18.76820312 -13.5 19.5 C-7.83448278 21.34064039 -2.23183769 22.77053169 3.625 23.875 C9.2504148 25.04542944 14.25089098 26.46791536 18.5 30.5 C20.86396669 34.34340279 21.16472081 38.08557206 20.5 42.5 C18.44455701 46.95345981 15.77401735 49.77635667 11.23828125 51.80078125 C4.19566774 53.59910909 -4.34581102 53.99930073 -11.23828125 51.51171875 C-13.21103614 50.31171907 -14.8300387 49.08893891 -16.5 47.5 C-17.325 46.736875 -18.15 45.97375 -19 45.1875 C-19.495 44.630625 -19.99 44.07375 -20.5 43.5 C-20.17 42.51 -19.84 41.52 -19.5 40.5 C-15.1627107 41.00045646 -12.72017653 43.75942423 -9.5 46.5 C-6.07008462 47.64330513 -3.3013584 47.70381651 0.3125 47.75 C2.11654297 47.78867188 2.11654297 47.78867188 3.95703125 47.828125 C7.82537665 47.46986589 10.19786144 46.50574342 13.5 44.5 C15.65684306 41.55885037 15.77582483 39.08572283 15.5 35.5 C15.17 34.51 14.84 33.52 14.5 32.5 C10.24618712 30.78354919 5.97074405 29.60206424 1.51953125 28.52734375 C0.81707275 28.35710693 0.11461426 28.18687012 -0.60913086 28.01147461 C-2.01269926 27.67614837 -3.41845088 27.34980486 -4.82641602 27.03344727 C-10.15733015 25.77922927 -13.89009125 24.0663977 -17.8125 20.25 C-20.01655907 16.65820003 -20.08324027 14.6555869 -19.5 10.5 C-15.37596099 2.08696043 -8.74622238 -0.18775433 0 0 Z " fill="#221878" transform="translate(135.5,76.5)"/>
<path d="M0 0 C4.85185986 2.34795361 4.85185986 2.34795361 6.625 4.12109375 C6.955 2.47109375 7.285 0.82109375 7.625 -0.87890625 C8.945 -0.87890625 10.265 -0.87890625 11.625 -0.87890625 C11.625 11.33109375 11.625 23.54109375 11.625 36.12109375 C10.305 36.12109375 8.985 36.12109375 7.625 36.12109375 C7.295 34.47109375 6.965 32.82109375 6.625 31.12109375 C5.2328125 32.08015625 5.2328125 32.08015625 3.8125 33.05859375 C-1.47517593 36.48003111 -6.21338107 36.91525797 -12.375 36.12109375 C-18.61808927 33.74935796 -21.59045656 30.02432585 -24.375 24.12109375 C-24.705 23.46109375 -25.035 22.80109375 -25.375 22.12109375 C-26.07127331 16.61939313 -25.59420206 11.8342756 -22.82421875 6.984375 C-17.05670608 -0.43099843 -8.90041454 -3.29373893 0 0 Z M-18.625 8.62109375 C-21.54450328 12.79181272 -21.7141284 16.11894992 -21.375 21.12109375 C-19.73951232 25.29158734 -17.80230622 28.22930413 -14.375 31.12109375 C-8.74505027 32.99774366 -3.28470492 33.05858526 2.0625 30.43359375 C5.54013689 27.29523851 7.351664 25.32802886 7.94140625 20.56640625 C8.13577715 15.93912488 7.97055549 12.83780143 5.9375 8.62109375 C2.87843645 5.31399802 0.85088345 3.38555515 -3.7421875 2.83984375 C-10.42610226 2.60184085 -14.05417338 3.54239751 -18.625 8.62109375 Z " fill="#251B7A" transform="translate(254.375,92.87890625)"/>
<path d="M0 0 C1.32 0 2.64 0 4 0 C4.33 6.6 4.66 13.2 5 20 C6.65 18.68 8.3 17.36 10 16 C13.714608 14.142696 17.94593118 14.55717094 22 15 C26.58632336 17.20822976 30.14867905 20.18390655 32 25 C32.49131793 29.63489078 32.37604784 34.22092591 32.25 38.875 C32.23195313 40.13570312 32.21390625 41.39640625 32.1953125 42.6953125 C32.14830729 45.79765614 32.08260676 48.8984338 32 52 C30.68 52 29.36 52 28 52 C27.98541748 51.23856689 27.97083496 50.47713379 27.95581055 49.69262695 C27.88119459 46.23208112 27.78457741 42.77248555 27.6875 39.3125 C27.66494141 38.11431641 27.64238281 36.91613281 27.61914062 35.68164062 C27.58369141 34.52470703 27.54824219 33.36777344 27.51171875 32.17578125 C27.48553467 31.11270752 27.45935059 30.04963379 27.43237305 28.9543457 C26.94554019 25.62788358 25.97530419 23.69882557 24 21 C21.55028376 19.77514188 19.85765539 19.83277192 17.125 19.8125 C16.26132812 19.79832031 15.39765625 19.78414062 14.5078125 19.76953125 C11.70525296 20.02708734 10.27629098 20.33802186 8 22 C3.99572045 27.51619288 4.44741174 33.82985333 4.3125 40.375 C4.27833984 41.49261719 4.24417969 42.61023438 4.20898438 43.76171875 C4.12683927 46.50771222 4.05757872 49.25339982 4 52 C2.68 52 1.36 52 0 52 C0 34.84 0 17.68 0 0 Z " fill="#231979" transform="translate(382,77)"/>
<path d="M0 0 C1.62890625 0.82421875 1.62890625 0.82421875 3.81640625 2.32421875 C3.81640625 3.64421875 3.81640625 4.96421875 3.81640625 6.32421875 C2.70265625 5.82921875 2.70265625 5.82921875 1.56640625 5.32421875 C-4.4401259 3.72247684 -11.23356285 3.34087512 -17.18359375 5.32421875 C-17.51359375 7.30421875 -17.84359375 9.28421875 -18.18359375 11.32421875 C-13.15037156 14.34415207 -8.04752805 15.30729819 -2.3046875 16.3828125 C1.19345892 17.43794803 3.16726431 18.83795353 5.81640625 21.32421875 C7.24302844 24.17746312 7.12674493 26.15876424 6.81640625 29.32421875 C4.96634332 32.45509448 3.49044378 33.97898001 0.25390625 35.63671875 C-7.24983677 37.13746735 -13.76156053 37.18565819 -20.625 33.58984375 C-22.5116883 32.05779611 -23.24659401 30.54318331 -24.18359375 28.32421875 C-22.55859375 27.57421875 -22.55859375 27.57421875 -20.18359375 27.32421875 C-19.35859375 27.96359375 -18.53359375 28.60296875 -17.68359375 29.26171875 C-13.77529132 32.14784978 -9.67992689 31.76378151 -4.98828125 31.7578125 C-1.88900313 31.27867619 -0.4856291 30.40045637 1.81640625 28.32421875 C1.48640625 26.34421875 1.15640625 24.36421875 0.81640625 22.32421875 C0.26178711 22.19370117 -0.29283203 22.06318359 -0.86425781 21.92871094 C-3.39114601 21.32525918 -5.91214829 20.70000565 -8.43359375 20.07421875 C-9.30628906 19.86925781 -10.17898438 19.66429688 -11.078125 19.453125 C-19.29682659 17.38276506 -19.29682659 17.38276506 -22.18359375 13.32421875 C-23.18359375 9.88671875 -23.18359375 9.88671875 -23.18359375 6.32421875 C-18.26751353 -1.86924829 -8.71051808 -2.69574173 0 0 Z " fill="#241978" transform="translate(559.18359375,92.67578125)"/>
<path d="M0 0 C2.62788601 2.38898728 4.34912083 4.7655341 6.0625 7.875 C6.0625 9.195 6.0625 10.515 6.0625 11.875 C-3.5075 11.875 -13.0775 11.875 -22.9375 11.875 C-21.95280697 6.95153487 -20.9544004 4.75387194 -17.9375 0.875 C-12.73470768 -2.47288375 -5.62262302 -2.15334499 0 0 Z " fill="#EDE8CB" transform="translate(447.9375,97.125)"/>
<path d="M0 0 C2.29667949 2.12001184 3.54107782 3.29180682 4.4375 6.25 C4.4375 7.9 4.4375 9.55 4.4375 11.25 C-4.8025 11.25 -14.0425 11.25 -23.5625 11.25 C-22.40865385 3.17307692 -22.40865385 3.17307692 -17.5625 -0.75 C-11.66887599 -2.71454134 -5.58261802 -2.74233868 0 0 Z " fill="#EEE9CB" transform="translate(492.5625,97.75)"/>
<path d="M0 0 C0.99 0 1.98 0 3 0 C3 3.63 3 7.26 3 11 C6.96 11 10.92 11 15 11 C15 12.32 15 13.64 15 15 C11.04 15 7.08 15 3 15 C3.0866926 19.27185249 3.19355022 23.54152959 3.3125 27.8125 C3.33505859 29.02744141 3.35761719 30.24238281 3.38085938 31.49414062 C3.41630859 32.65751953 3.45175781 33.82089844 3.48828125 35.01953125 C3.51446533 36.09307861 3.54064941 37.16662598 3.56762695 38.27270508 C3.78456814 41.01689246 3.78456814 41.01689246 5.40429688 42.86914062 C6.95223858 44.18517368 6.95223858 44.18517368 9.04296875 44.07421875 C9.75066406 43.94660156 10.45835937 43.81898437 11.1875 43.6875 C12.445625 43.460625 13.70375 43.23375 15 43 C15.33 44.32 15.66 45.64 16 47 C12.28722262 48.23759246 8.85812154 48.55653215 5 48 C1.55687286 45.8755173 0.28382453 44.85147359 -1 41 C-1.08291953 39.0079697 -1.10738177 37.01326287 -1.09765625 35.01953125 C-1.09443359 33.85615234 -1.09121094 32.69277344 -1.08789062 31.49414062 C-1.07951172 30.27919922 -1.07113281 29.06425781 -1.0625 27.8125 C-1.05798828 26.58595703 -1.05347656 25.35941406 -1.04882812 24.09570312 C-1.03703065 21.06375332 -1.02056921 18.03190094 -1 15 C-3.64 15 -6.28 15 -9 15 C-9 13.68 -9 12.36 -9 11 C-6.36 11 -3.72 11 -1 11 C-1.01160156 10.28972656 -1.02320313 9.57945313 -1.03515625 8.84765625 C-1.04869141 7.46900391 -1.04869141 7.46900391 -1.0625 6.0625 C-1.07410156 5.14597656 -1.08570313 4.22945313 -1.09765625 3.28515625 C-1 1 -1 1 0 0 Z " fill="#241979" transform="translate(514,81)"/>
<path d="M0 0 C1.32 0 2.64 0 4 0 C4 3.3 4 6.6 4 10 C7.96 10 11.92 10 16 10 C16 11.32 16 12.64 16 14 C12.04 14 8.08 14 4 14 C4.14050068 18.1044136 4.2871601 22.20844525 4.4375 26.3125 C4.47681641 27.47974609 4.51613281 28.64699219 4.55664062 29.84960938 C4.61948242 31.52700195 4.61948242 31.52700195 4.68359375 33.23828125 C4.72025146 34.26993408 4.75690918 35.30158691 4.79467773 36.36450195 C4.90161242 39.10748258 4.90161242 39.10748258 6 42 C9.69541586 42.95024979 12.30458414 42.95024979 16 42 C16.33 43.32 16.66 44.64 17 46 C13.52468913 47.73765543 9.7911999 47.59585352 6 47 C2.71824682 44.47031526 1.30756223 42.92268669 0 39 C-0.08266486 37.08093083 -0.10740663 35.15910526 -0.09765625 33.23828125 C-0.09443359 32.12001953 -0.09121094 31.00175781 -0.08789062 29.84960938 C-0.07951172 28.68236328 -0.07113281 27.51511719 -0.0625 26.3125 C-0.05798828 25.13365234 -0.05347656 23.95480469 -0.04882812 22.74023438 C-0.03703273 19.82677211 -0.0205727 16.91341137 0 14 C-2.31 14 -4.62 14 -7 14 C-7 12.68 -7 11.36 -7 10 C-4.69 10 -2.38 10 0 10 C0 6.7 0 3.4 0 0 Z " fill="#251B7A" transform="translate(311,82)"/>
<path d="M0 0 C0.99 0 1.98 0 3 0 C3.33 1.65 3.66 3.3 4 5 C4.61875 4.360625 5.2375 3.72125 5.875 3.0625 C8.9778054 0.05095358 10.71438183 -0.15649326 14.9375 -0.1875 C15.81277344 -0.20167969 16.68804687 -0.21585937 17.58984375 -0.23046875 C20 0 20 0 23 2 C22.67 2.99 22.34 3.98 22 5 C20.89591797 4.93039063 20.89591797 4.93039063 19.76953125 4.859375 C13.52752158 4.54894404 13.52752158 4.54894404 7.875 6.875 C4.872242 10.27812573 4.8355651 12.41051263 4.68359375 16.8828125 C4.64169922 18.04941406 4.59980469 19.21601562 4.55664062 20.41796875 C4.49766602 22.25294922 4.49766602 22.25294922 4.4375 24.125 C4.39431641 25.35605469 4.35113281 26.58710937 4.30664062 27.85546875 C4.20031296 30.90352853 4.09828219 33.9516719 4 37 C2.68 37 1.36 37 0 37 C0 24.79 0 12.58 0 0 Z " fill="#261C7A" transform="translate(276,92)"/>
</svg>
